<svg
  width="56"
  height="57"
  viewBox="0 0 56 57"
  fill="none"
  xmlns="http://www.w3.org/2000/svg"
>
<g clip-path="url(#clip0_564_577)">
<circle cx="27.8239" cy="28.4999" r="32.4792" fill="#CE4667" />
<path
      d="M61.0538 29.5961L61.025 29.2872C61.0492 28.7627 61.0623 28.2367 61.0623 27.7082C61.0623 18.8711 57.6211 10.5636 51.3727 4.31516C45.1242 -1.93328 36.8162 -5.37451 27.9797 -5.37451C19.1431 -5.37451 10.8351 -1.93328 4.58664 4.31516C-1.66179 10.5636 -5.10303 18.8711 -5.10303 27.7082C-5.10303 27.9363 -5.09949 28.164 -5.09495 28.3917C-5.10303 28.8551 -5.10555 29.3261 -5.09949 29.8061C-5.09899 29.8495 -5.09697 29.8924 -5.09394 29.9359C-4.83094 33.2746 -4.26657 36.154 -3.36701 38.7386C-3.36096 38.7568 -3.35389 38.7749 -3.34733 38.7931C-2.22364 41.7346 -0.839977 44.3454 0.764788 46.5534C0.775893 46.5686 0.787504 46.5842 0.799114 46.5994C0.83546 46.6463 0.87231 46.6922 0.908656 46.7387C1.99701 48.2799 3.22519 49.7392 4.58664 51.1012C10.8351 57.3496 19.1431 60.7909 27.9797 60.7909C36.8162 60.7909 45.1242 57.3496 51.3727 51.1012C56.978 45.4959 60.3218 38.2338 60.9518 30.419C61.0416 30.1625 61.081 29.8844 61.0538 29.5961ZM39.4942 54.5465C40.2171 54.1108 40.9187 53.6449 41.5957 53.1497C41.6007 53.1461 41.6053 53.1426 41.6103 53.1391C44.5558 50.9412 47.1248 48.0699 49.0405 44.8346C50.8053 41.938 51.6089 39.1116 52.1117 36.9723C52.1178 36.945 52.1238 36.9178 52.1289 36.89C52.2207 36.4064 52.3212 35.9289 52.4282 35.4705C52.4363 35.4347 52.4439 35.3983 52.4499 35.362C52.515 34.9854 52.5393 34.6467 52.5605 34.3483C52.5716 34.1918 52.5822 34.0439 52.5963 33.9278C52.5973 33.9193 52.5988 33.9117 52.5993 33.9031L52.7281 32.7597C52.773 32.3857 52.7589 32.0596 52.7488 31.8208C52.7457 31.7446 52.7417 31.6577 52.7427 31.6199C52.7437 31.5926 52.7442 31.5654 52.7437 31.5381C52.7301 30.4911 52.7538 29.9137 52.7553 29.8793C52.7568 29.8511 52.7548 29.8238 52.7548 29.796C52.7558 29.6951 52.7513 29.5931 52.7356 29.4901C52.7351 29.4841 52.6483 28.9005 52.5489 27.8374C52.5463 27.8106 52.5433 27.7844 52.5398 27.7581C52.5352 27.7223 52.5302 27.638 52.5256 27.5638C52.511 27.3276 52.4913 27.005 52.4065 26.636L52.1602 25.5259C52.1581 25.5173 52.1566 25.5082 52.1541 25.4992C52.1279 25.3886 52.1026 25.2463 52.0759 25.0958C52.0249 24.8076 51.9663 24.48 51.8628 24.1175C51.8527 24.0822 51.8416 24.0468 51.8295 24.012C51.674 23.5663 51.5271 23.1145 51.3924 22.6687C51.3843 22.6415 51.3752 22.6142 51.3656 22.5875C50.6629 20.5859 49.6054 17.9615 47.6442 15.4041C45.5442 12.5873 42.8996 10.1905 39.9949 8.47169C39.9899 8.46867 39.9849 8.46564 39.9793 8.46261C36.5865 6.49691 32.692 5.31113 28.7136 5.03197C28.2846 4.982 27.8878 4.99967 27.5657 5.0138C27.3996 5.02137 27.2421 5.02844 27.122 5.0244C27.1033 5.02339 27.0846 5.02289 27.066 5.02289L26.3703 5.01784C25.9483 4.99563 25.5829 5.01683 25.2295 5.08447C24.9438 5.12839 24.6348 5.15767 24.3092 5.18846C23.6555 5.25055 22.9205 5.32022 22.1603 5.53577C19.8902 5.9174 17.8236 6.83614 16.0608 7.67057C16.0063 7.69632 15.9533 7.72459 15.9018 7.75538C15.4919 7.99819 15.0739 8.22939 14.6589 8.44242C14.6453 8.44948 14.6317 8.45655 14.6186 8.46362C14.241 8.66907 13.9285 8.90027 13.6529 9.10371C13.5014 9.21628 13.3581 9.32228 13.2349 9.39952C13.2243 9.40608 13.2142 9.41264 13.2041 9.41921L12.5564 9.84425C12.4807 9.89372 12.409 9.94874 12.3409 10.0083L11.7523 10.5247C11.7417 10.5343 11.7311 10.5439 11.721 10.5535C11.5968 10.6671 11.4449 10.7887 11.2843 10.9175C11.0415 11.1123 10.7664 11.3329 10.4938 11.6005C8.99962 13.0321 7.63211 14.7555 6.31407 16.8691C6.30095 16.8898 6.28833 16.911 6.27571 16.9327C5.25803 18.7136 4.44732 20.7434 3.79764 23.1387C3.79057 23.1639 3.78451 23.1897 3.77845 23.2154C3.34584 25.115 3.1636 27.212 3.205 29.8147C3.20601 29.8748 3.20954 29.9349 3.2161 29.9949C3.49526 32.5406 3.93292 34.5644 4.5932 36.3645C4.60279 36.3903 4.61289 36.416 4.62349 36.4412C5.53415 38.6296 6.54022 40.4413 7.69975 41.9809C7.71641 42.0026 7.73307 42.0238 7.75023 42.0445C9.21769 43.832 10.6604 45.243 12.1617 46.3566C12.4439 46.5711 12.7185 46.7372 12.9613 46.8841C13.1148 46.9765 13.2596 47.0638 13.3682 47.1415C13.3788 47.1491 13.3894 47.1567 13.4005 47.1642L13.9679 47.5534C14.0507 47.6105 14.138 47.661 14.2289 47.7044L14.8498 48.0007C14.8614 48.0062 14.8735 48.0118 14.8851 48.0174C14.9861 48.0628 15.1153 48.1365 15.2531 48.2147C15.507 48.3586 15.823 48.5383 16.1991 48.6812C16.2153 48.6877 16.2314 48.6933 16.2481 48.6993C16.6221 48.8301 16.9906 48.975 17.343 49.1309C17.4076 49.1597 17.4742 49.185 17.5414 49.2062C19.3228 49.7705 21.0775 50.2814 22.9433 50.3455C23.3259 50.4061 23.6919 50.4232 24.0387 50.4232C24.287 50.4232 24.5248 50.4142 24.7514 50.4061C25.02 50.3955 25.2754 50.3864 25.494 50.395C25.9251 50.4298 26.3002 50.3758 26.5647 50.3243L27.1139 50.2466C27.1341 50.2435 27.1543 50.2405 27.1745 50.237C27.2391 50.2254 27.3572 50.2178 27.4713 50.2097C27.7353 50.192 28.0902 50.1683 28.4774 50.0674C31.6435 49.4126 34.5123 48.1208 37.0045 46.2268C37.0121 46.2208 37.0196 46.2152 37.0272 46.2092C39.054 44.6221 40.8137 42.5594 42.1171 40.2439C43.2994 38.2292 43.7683 36.3378 44.1151 34.7224C44.1237 34.6825 44.1308 34.6426 44.1368 34.6022C44.1798 34.314 44.2343 34.0343 44.2979 33.7703C44.3105 33.7193 44.3206 33.6674 44.3287 33.6159C44.3776 33.3039 44.3832 33.0242 44.3872 32.8203C44.3887 32.7491 44.3903 32.6517 44.3943 32.6184C44.3968 32.5921 44.3993 32.5664 44.4014 32.5401C44.416 32.3241 44.4372 32.1161 44.4665 31.9041C44.4675 31.899 44.468 31.8935 44.4685 31.8884C44.5165 31.5204 44.4841 31.208 44.465 31.0212C44.4629 31.0005 44.4604 30.9798 44.4589 30.9601C44.4589 30.9349 44.4579 30.9101 44.4569 30.8854C44.4311 30.3776 44.4412 30.0661 44.4458 29.9677C44.465 29.7632 44.4529 29.5527 44.4029 29.3417C44.4019 29.3387 44.3272 29.0035 44.2625 28.3942C44.26 28.3685 44.2565 28.3432 44.2529 28.318C44.2519 28.3008 44.2509 28.2836 44.2504 28.2665C44.2413 28.0807 44.2257 27.7693 44.1187 27.4083C44.1167 27.4028 44.1151 27.3972 44.1136 27.3922C44.0515 27.1897 43.9965 26.9848 43.9496 26.7834C43.9435 26.7571 43.9369 26.7309 43.9299 26.7046C43.9218 26.6753 43.9062 26.5865 43.8945 26.5224C43.8602 26.328 43.8128 26.062 43.7169 25.7672C43.6997 25.7147 43.6805 25.6627 43.6588 25.6117C43.5513 25.3578 43.4604 25.111 43.3806 24.8576C43.367 24.8162 43.3529 24.7748 43.3367 24.7339C42.7633 23.2705 42.0364 21.5708 40.6598 19.908C39.1565 18.02 37.3129 16.442 35.326 15.3436C35.3169 15.3385 35.3079 15.3335 35.2983 15.3289C32.9848 14.0987 30.4481 13.4102 27.7575 13.2814C27.387 13.2431 27.0639 13.2784 26.8428 13.3021C26.7893 13.3082 26.7177 13.3163 26.6874 13.3178C26.6485 13.3168 26.6091 13.3173 26.5702 13.3183C26.4703 13.3223 26.3653 13.3233 26.2522 13.3218C25.8746 13.2971 25.5299 13.3299 25.2012 13.4203C25.0644 13.4495 24.8832 13.4697 24.6924 13.4909C24.2916 13.5359 23.8049 13.5904 23.2835 13.7681C21.9281 14.0275 20.7408 14.6136 19.6883 15.1331L19.4056 15.2724C19.3193 15.3148 19.236 15.3638 19.1567 15.4183C18.9614 15.5536 18.7675 15.6692 18.5631 15.7716C18.5414 15.7827 18.5202 15.7943 18.4985 15.806C18.1774 15.9831 17.9351 16.1881 17.7584 16.3375C17.709 16.3794 17.6408 16.437 17.6247 16.4491C17.5939 16.4683 17.5641 16.4884 17.5348 16.5091C17.4419 16.5753 17.3455 16.6389 17.2481 16.6984C17.1158 16.7792 16.9942 16.8751 16.8846 16.9847L16.5358 17.3345C16.5247 17.3456 16.5141 17.3567 16.5035 17.3678C16.4767 17.3956 16.3894 17.4673 16.3253 17.5193C16.1688 17.647 15.975 17.8055 15.7751 18.018C14.6504 19.1861 13.8144 20.49 13.2117 21.4961C13.1905 21.5309 13.1708 21.5662 13.1521 21.6026C12.4363 22.9878 12.035 24.3896 11.7372 25.5789C11.7266 25.6218 11.7175 25.6647 11.7099 25.7081C11.4625 27.0858 11.4731 28.3912 11.5105 29.8329C11.513 29.9313 11.5231 30.0293 11.5403 30.1262C11.7674 31.3922 12.0345 32.7365 12.5706 34.0323C12.5888 34.0762 12.6084 34.1192 12.6291 34.1611C13.1415 35.1818 13.7841 36.3701 14.6645 37.4443C14.6933 37.4796 14.7236 37.5139 14.7549 37.5473C15.5206 38.3575 16.4525 39.2863 17.5621 40.0395C17.7912 40.2 18.0058 40.306 18.1633 40.3842C18.1996 40.4019 18.2365 40.4191 18.2713 40.4383C18.2774 40.4423 18.2839 40.4468 18.29 40.4509L18.6191 40.673C18.7716 40.7755 18.9376 40.8557 19.1128 40.9118C19.1895 40.9365 19.2627 40.9633 19.3294 40.991C19.3526 41.0006 19.3758 41.0102 19.399 41.0188C19.4202 41.0299 19.4404 41.042 19.4611 41.0536C19.6368 41.1515 19.9013 41.2995 20.2572 41.3984C20.2865 41.4065 20.3153 41.4135 20.3445 41.4206C20.4818 41.4519 20.602 41.4908 20.7125 41.5397C20.8276 41.5907 20.9478 41.6301 21.0704 41.6579C21.2294 41.6937 21.3869 41.7311 21.5424 41.7684C22.3395 41.9587 23.2345 42.1712 24.231 42.1405C24.3789 42.1581 24.5208 42.1647 24.655 42.1647C24.9231 42.1647 25.1619 42.1374 25.3607 42.1142C25.438 42.1051 25.5399 42.0935 25.594 42.0905C25.9392 42.1248 26.286 42.0839 26.6475 41.9678C26.6904 41.9572 26.7328 41.9481 26.7772 41.94C26.7959 41.9365 26.8141 41.933 26.8327 41.9294C26.8378 41.9289 26.8428 41.9284 26.8479 41.9284C27.0286 41.9173 27.3456 41.8981 27.7086 41.7699C29.5168 41.249 31.0716 40.4292 32.4578 39.2666C32.4729 39.254 32.4875 39.2414 32.5017 39.2283C33.6057 38.2449 34.5466 36.989 35.2241 35.5947C35.8288 34.4407 35.9898 33.3483 36.0969 32.6234C36.1085 32.5467 36.1191 32.473 36.1302 32.4013C36.1367 32.3614 36.1413 32.321 36.1453 32.2812C36.2478 31.1635 36.1781 30.3251 36.1433 29.9162C36.1564 29.7243 36.1403 29.5366 36.0999 29.3574L36.1009 29.3609C36.1009 29.3609 36.0994 29.3553 36.0979 29.3473C36.0979 29.3463 36.0979 29.3457 36.0974 29.3447C36.0908 29.3094 36.0752 29.218 36.06 29.0762C36.0595 29.0721 36.0595 29.0681 36.059 29.0636C36.0524 28.9454 36.0378 28.7223 35.956 28.4467C35.9353 28.378 35.9182 28.3144 35.9035 28.2518C35.9015 28.2417 35.899 28.2317 35.8965 28.2221L35.8924 28.1993C35.8742 28.0979 35.844 27.9273 35.7793 27.7279C35.7617 27.6749 35.7425 27.6224 35.7203 27.5709C35.689 27.4962 35.6617 27.423 35.638 27.3477C35.6249 27.3058 35.6102 27.2639 35.5941 27.2226C35.3942 26.7142 35.0237 25.7697 34.2786 24.8666C33.5466 23.9494 32.6465 23.1816 31.6738 22.644C31.6647 22.639 31.6556 22.6344 31.6465 22.6294C30.5203 22.0307 29.2886 21.6935 27.9842 21.6268C27.7227 21.6031 27.5107 21.6263 27.389 21.6399C27.3774 21.6399 27.3658 21.6405 27.3542 21.641C27.3345 21.6415 27.3148 21.6415 27.2946 21.642C27.0402 21.6283 26.8009 21.6506 26.5682 21.7091C26.5354 21.7142 26.5021 21.7172 26.4693 21.7207C26.2805 21.7414 26.0135 21.7717 25.7086 21.8666C25.0145 22.011 24.4349 22.2967 23.9619 22.5299L23.8438 22.5885C23.7565 22.6309 23.6732 22.6803 23.5934 22.7354C23.5531 22.7631 23.5122 22.7874 23.4693 22.8096C23.4486 22.8202 23.4274 22.8308 23.4072 22.8424C23.1744 22.9706 23.0104 23.1094 22.9125 23.1922L22.9064 23.1973C22.9003 23.2018 22.8943 23.2058 22.8882 23.2104C22.8701 23.223 22.8519 23.2351 22.8332 23.2462C22.7009 23.3265 22.5793 23.4224 22.4697 23.5319L22.3289 23.6733L22.3128 23.6864C22.236 23.749 22.1103 23.852 21.9766 23.9938C21.4218 24.5703 21.021 25.1943 20.7332 25.6743C20.712 25.7092 20.6923 25.745 20.6737 25.7813C20.3127 26.4795 20.1123 27.1842 19.978 27.7208C19.9674 27.7632 19.9584 27.8061 19.9503 27.8495C19.8271 28.5355 19.8317 29.1807 19.8483 29.8354C19.8508 29.9343 19.8609 30.0333 19.8781 30.1302C19.9816 30.7047 20.1143 31.372 20.3849 32.0273C20.4031 32.0707 20.4228 32.1136 20.444 32.156C20.6893 32.6456 21.0008 33.2196 21.4465 33.7643C21.4758 33.7996 21.5066 33.8344 21.5379 33.8683C21.9059 34.257 22.3567 34.7052 22.917 35.0864C23.0659 35.1893 23.2017 35.2595 23.2855 35.3009L23.3774 35.3625C23.5263 35.4629 23.6878 35.5417 23.859 35.5977C23.969 35.6578 24.1568 35.7537 24.4011 35.8213C24.4233 35.8274 24.4465 35.8335 24.4693 35.839C24.5758 35.8839 24.6863 35.9193 24.7989 35.945C24.862 35.9592 24.9246 35.9743 24.9862 35.9889C25.3486 36.0753 25.7863 36.1803 26.3047 36.1803C26.3941 36.1803 26.4865 36.1767 26.5809 36.1702C27.649 36.0919 28.4557 35.1631 28.3774 34.0954C28.2997 33.0273 27.3719 32.2267 26.3078 32.3029C26.2396 32.3024 26.0352 32.2534 25.8862 32.2181C25.8595 32.2115 25.8322 32.2055 25.8055 32.1989C25.7363 32.1736 25.6656 32.1499 25.594 32.1282C25.5278 32.0939 25.4445 32.054 25.3461 32.0156C25.2295 31.9404 25.125 31.8869 25.0558 31.8521C24.8347 31.6941 24.6086 31.4705 24.4087 31.2615C24.2345 31.0363 24.0785 30.7516 23.9453 30.4896C23.8564 30.2559 23.7903 29.9646 23.7201 29.5891C23.7121 29.2014 23.7131 28.8733 23.7565 28.5911C23.8383 28.272 23.9417 27.9172 24.0927 27.6097C24.2678 27.321 24.495 26.9717 24.756 26.6971L24.7666 26.688C24.8358 26.6314 24.9488 26.5391 25.07 26.4149C25.0811 26.4073 25.0927 26.3992 25.1038 26.3916C25.2189 26.3149 25.3108 26.2407 25.3764 26.1857C25.4748 26.1312 25.5718 26.0736 25.6661 26.0125L25.6773 26.007C26.0054 25.8449 26.3153 25.692 26.5253 25.6572C26.6278 25.64 26.7283 25.6148 26.8267 25.5814C26.8509 25.5784 26.8752 25.5764 26.8999 25.5734C27.0049 25.5618 27.1382 25.5466 27.2901 25.5188C27.3431 25.5173 27.3971 25.5178 27.4491 25.5163C27.5799 25.5163 27.6904 25.5067 27.7697 25.4981C28.5036 25.533 29.1902 25.7172 29.8116 26.0448C30.4799 26.4174 30.9656 26.9293 31.2553 27.2942C31.2639 27.3053 31.273 27.3164 31.2821 27.327C31.5976 27.7072 31.7864 28.1378 31.963 28.5845C31.9989 28.694 32.0383 28.8041 32.0807 28.9126C32.0928 28.9783 32.1089 29.0641 32.1342 29.1615C32.1534 29.2413 32.1735 29.32 32.1953 29.3977C32.1983 29.4346 32.2023 29.476 32.2084 29.5209C32.225 29.6739 32.2437 29.8041 32.2609 29.9111C32.2629 30.0363 32.2715 30.1474 32.2791 30.2357C32.3073 30.5664 32.3543 31.1151 32.2891 31.8703C32.2801 31.9313 32.2705 31.9934 32.2614 32.057C32.1756 32.636 32.0872 33.2352 31.7813 33.8112C31.7697 33.8334 31.7586 33.8556 31.7475 33.8779C31.43 34.5366 30.8596 35.4917 29.9438 36.315C28.9721 37.1242 27.8706 37.6957 26.5783 38.0606C26.4456 38.0687 26.2497 38.0839 26.023 38.1369C25.9074 38.1591 25.7924 38.1848 25.6793 38.2136C25.3865 38.2091 25.1285 38.2383 24.9135 38.2636C24.8378 38.2722 24.7393 38.2838 24.6828 38.2868C24.5223 38.2575 24.3582 38.2489 24.1952 38.2611C23.6984 38.2964 23.1154 38.1586 22.442 37.9975C22.3259 37.9698 22.2088 37.942 22.0911 37.9148C21.8605 37.8224 21.6232 37.7456 21.3733 37.681C21.3657 37.677 21.3587 37.673 21.3516 37.6689C21.2183 37.5947 21.0235 37.4857 20.7746 37.3938C20.709 37.367 20.6424 37.3413 20.5752 37.3166L20.4727 37.2474C20.2486 37.0909 20.0386 36.9869 19.8831 36.9102C19.8448 36.891 19.7938 36.8658 19.7686 36.8521C19.7625 36.8476 19.7559 36.8436 19.7499 36.839C18.9649 36.309 18.236 35.5846 17.6211 34.9364C17.0189 34.1888 16.5469 33.3216 16.1269 32.4886C15.771 31.6052 15.5615 30.5765 15.3818 29.586C15.3536 28.4442 15.35 27.4139 15.5141 26.4548C15.7513 25.5133 16.0628 24.4295 16.5686 23.4355C17.0643 22.6107 17.7362 21.5683 18.5747 20.6995C18.5838 20.6904 18.5919 20.6818 18.6009 20.6722C18.6272 20.6445 18.7135 20.5738 18.7766 20.5223C18.9235 20.4022 19.1052 20.2543 19.293 20.0589L19.4748 19.8772C19.5666 19.8176 19.657 19.756 19.7458 19.6934C19.9594 19.5531 20.1325 19.4067 20.2617 19.2972C20.3021 19.2628 20.3551 19.2184 20.3869 19.1932C20.6757 19.0438 20.9604 18.8762 21.2355 18.6924L21.4026 18.6101C22.3476 18.1437 23.2396 17.703 24.1093 17.5586C24.2487 17.5354 24.3845 17.497 24.5152 17.4445C24.6263 17.3996 24.8898 17.3703 25.122 17.3446C25.4072 17.3123 25.7282 17.2764 26.0801 17.1962C26.0962 17.1972 26.1119 17.1977 26.128 17.1977C26.3148 17.2012 26.4905 17.2007 26.6616 17.1952C26.9014 17.2007 27.1079 17.174 27.2638 17.1568C27.3057 17.1523 27.3598 17.1462 27.3951 17.1432C27.4335 17.1472 27.4723 17.1502 27.5107 17.1518C29.643 17.2451 31.6455 17.7812 33.4633 18.7449C35.4124 19.8257 36.8081 21.2942 37.6365 22.3366C37.6451 22.3477 37.6537 22.3583 37.6628 22.3694C38.6638 23.5744 39.2221 24.8671 39.7032 26.0913C39.8016 26.3972 39.9147 26.7051 40.0399 27.0095C40.051 27.0605 40.0646 27.1362 40.0762 27.2008C40.1004 27.3392 40.1307 27.5093 40.1797 27.6945C40.2373 27.9389 40.3029 28.1852 40.3756 28.4295C40.3761 28.4401 40.3766 28.4502 40.3771 28.4608C40.3821 28.5608 40.3887 28.693 40.4109 28.8475C40.4634 29.3346 40.5225 29.6986 40.5664 29.9328C40.5593 30.1706 40.5573 30.5396 40.581 31.0378C40.5835 31.1893 40.5972 31.3195 40.6073 31.418C40.6088 31.4336 40.6108 31.4498 40.6123 31.4664C40.5785 31.7229 40.5522 31.9838 40.5341 32.2433C40.5159 32.4306 40.5129 32.6037 40.5098 32.7446C40.5083 32.8198 40.5068 32.9096 40.5023 32.9692C40.4276 33.2913 40.3629 33.626 40.311 33.9667C40.0161 35.3342 39.6487 36.7931 38.7647 38.2944C38.7577 38.306 38.7511 38.3171 38.7451 38.3287C37.691 40.205 36.2746 41.8709 34.6466 43.1485C32.6077 44.6953 30.2508 45.7493 27.6399 46.2813C27.59 46.2914 27.5511 46.3005 27.5021 46.3152C27.4547 46.3253 27.3123 46.3349 27.2083 46.3419C27.0231 46.3545 26.7939 46.3702 26.542 46.4121L25.9635 46.4939C25.9226 46.4999 25.8817 46.507 25.8413 46.5151C25.8085 46.5221 25.7868 46.5257 25.7737 46.5277C25.7555 46.5262 25.7378 46.5252 25.7197 46.5247C25.3244 46.505 24.9418 46.5191 24.604 46.5317C24.1841 46.5479 23.7873 46.5625 23.498 46.5075C23.3915 46.4873 23.284 46.4762 23.176 46.4737C21.7948 46.4444 20.3789 46.037 18.8089 45.5413C18.4036 45.3651 17.9841 45.2001 17.559 45.0511C17.4621 45.0113 17.3187 44.93 17.1673 44.8437C16.975 44.7346 16.7574 44.611 16.5035 44.4943L16.035 44.2712L15.6075 43.9774C15.3813 43.8169 15.1597 43.6831 14.9644 43.565C14.7877 43.4585 14.6211 43.3575 14.504 43.2682C14.4959 43.2621 14.4878 43.2561 14.4797 43.25C13.2425 42.3328 12.0289 41.144 10.7715 39.6164C9.82648 38.3549 8.99104 36.841 8.21768 34.9904C7.6836 33.5225 7.32065 31.8258 7.07885 29.6623C7.04856 27.4396 7.19798 25.6728 7.54882 24.1145C8.10561 22.0736 8.78407 20.3633 9.62254 18.8883C10.7634 17.0634 11.928 15.5924 13.1824 14.3925C13.189 14.386 13.195 14.3799 13.2016 14.3738C13.3374 14.2401 13.5181 14.0952 13.7094 13.9417C13.8977 13.7908 14.1107 13.6202 14.3238 13.4253L14.7957 13.0114L15.3157 12.6701C15.5555 12.5182 15.769 12.3602 15.9578 12.2204C16.1421 12.0841 16.3162 11.9553 16.455 11.8776C16.9038 11.6464 17.3546 11.3975 17.7973 11.137C19.3329 10.4122 21.1113 9.62668 22.8943 9.34349C22.9836 9.32935 23.072 9.30916 23.1588 9.2824C23.5894 9.15065 24.1159 9.10068 24.6732 9.04818C25.0563 9.01183 25.4531 8.97448 25.8701 8.90784C25.8953 8.9038 25.9211 8.89926 25.9463 8.89371C25.9721 8.88916 26.0377 8.88159 26.1922 8.89118C26.2265 8.8932 26.2608 8.89421 26.2946 8.89421L27.0125 8.89926C27.277 8.90784 27.5218 8.89674 27.7389 8.88664C27.9433 8.87755 28.1553 8.86847 28.2694 8.88361C28.3108 8.88916 28.3527 8.8932 28.3946 8.89623C31.8 9.12794 35.1307 10.136 38.0267 11.8125C40.4937 13.2739 42.7466 15.3203 44.5417 17.7313C44.5478 17.7388 44.5533 17.7464 44.5594 17.754C46.1707 19.8514 47.048 22.0009 47.6927 23.8318C47.8335 24.2952 47.986 24.7647 48.1465 25.2281C48.1894 25.3896 48.2227 25.5774 48.2575 25.7743C48.2919 25.9666 48.3272 26.1655 48.3767 26.3765L48.622 27.4825C48.6235 27.4896 48.625 27.4967 48.6271 27.5037C48.6397 27.5593 48.6478 27.687 48.6543 27.799C48.6624 27.9283 48.671 28.0726 48.6907 28.2322C48.7679 29.0509 48.8386 29.6113 48.8749 29.8824C48.8668 30.1534 48.8552 30.7183 48.8653 31.5527C48.8628 31.7123 48.8689 31.8571 48.8744 31.9869C48.8795 32.104 48.885 32.2373 48.8779 32.2973C48.8769 32.3039 48.8759 32.311 48.8749 32.318L48.7467 33.4584C48.7204 33.6734 48.7058 33.8769 48.6922 34.0737C48.677 34.2822 48.6629 34.4806 48.6361 34.6547C48.5261 35.1318 48.4221 35.626 48.3267 36.1247C47.8628 38.0935 47.1879 40.4246 45.7229 42.8265C45.7184 42.834 45.7138 42.8416 45.7093 42.8492C44.0536 45.6483 41.8365 48.1299 39.2978 50.026C36.2044 52.289 32.5133 53.8438 28.6233 54.5237C28.5884 54.5298 28.5531 54.5374 28.5178 54.5454C28.3335 54.5884 28.0725 54.6065 27.7959 54.6257C27.5602 54.6424 27.2941 54.6605 27.014 54.6979L26.171 54.7893C26.1432 54.7918 26.1159 54.7958 26.0882 54.7999C25.8968 54.8291 25.755 54.8392 25.654 54.8312C25.6283 54.8291 25.6031 54.8276 25.5773 54.8266C25.1396 54.81 24.7126 54.8135 24.2997 54.8165C23.5712 54.8231 22.8832 54.8281 22.2693 54.7206C22.1961 54.7075 22.1224 54.6989 22.0477 54.6949C19.7433 54.5591 17.4349 53.8392 15.4722 53.1456C14.9083 52.8968 14.3248 52.6509 13.7372 52.4152C13.4969 52.3117 13.2283 52.1582 12.9441 51.9957C12.7028 51.8574 12.4535 51.715 12.1773 51.5757L11.4307 51.183L10.7341 50.7024C10.4827 50.5227 10.2359 50.3617 9.99711 50.2062C9.70079 50.0133 9.42113 49.8311 9.18488 49.6453C9.17933 49.6408 9.17377 49.6368 9.16822 49.6322C7.46906 48.3263 5.81836 46.6761 4.25549 44.723C0.933896 40.1041 -1.07471 34.4796 -1.21757 28.4013C-1.16911 25.9323 -0.902068 23.7399 -0.406353 21.7359C0.374576 18.9534 1.4175 16.4561 2.69414 14.3123C4.25196 11.8624 5.97636 9.75641 7.8204 8.05372C7.82494 8.04918 7.82949 8.04514 7.83403 8.04059C8.08391 7.80536 8.37467 7.57466 8.6826 7.33034C8.91733 7.14407 9.15964 6.95174 9.40497 6.74123L10.1334 6.1385L10.9194 5.62461C11.19 5.45449 11.4393 5.28135 11.6801 5.11375C11.9971 4.89366 12.2965 4.68568 12.5686 4.53828C13.1769 4.21319 13.7826 3.88961 14.3859 3.56704C17.3117 2.20912 19.5656 1.45646 21.6883 1.12683C21.7534 1.11673 21.818 1.10361 21.8817 1.08645C22.6378 0.888563 23.4647 0.818396 24.34 0.74419C24.7737 0.707339 25.2214 0.668974 25.6768 0.613951C25.6959 0.611427 25.7156 0.608902 25.7348 0.605874C25.8958 0.581644 26.0947 0.575586 26.3618 0.588711C26.383 0.58972 26.4047 0.590225 26.4259 0.59073L27.4092 0.60436C27.7071 0.615465 27.9867 0.611427 28.2568 0.607893C28.6102 0.602845 28.9433 0.597797 29.2094 0.632628C29.2407 0.636667 29.2725 0.639696 29.3043 0.64222C34.0226 1.01628 38.629 2.48777 42.6154 4.89164C46.0051 6.96436 49.0662 9.82002 51.4681 13.1497C51.4721 13.1557 51.4767 13.1618 51.4812 13.1674C53.7725 16.2694 54.9825 19.4638 55.6943 21.6046L55.7655 21.8404C55.9381 22.4078 56.1027 22.9489 56.2592 23.4628C56.3339 23.751 56.3874 24.0529 56.4444 24.3719C56.4843 24.5951 56.5252 24.8263 56.5752 25.06L56.6317 25.3452C56.717 25.7738 56.7968 26.1751 56.872 26.5491C56.9058 26.7183 56.9194 26.9212 56.9336 27.1367C56.9447 27.2973 56.9553 27.4633 56.9755 27.64L57.138 29.3619C56.5035 40.6679 49.409 50.2763 39.4942 54.5465Z"
      fill="url(#paint0_radial_564_577)"
    />
</g>
<defs>
<radialGradient
      id="paint0_radial_564_577"
      cx="0"
      cy="0"
      r="1"
      gradientUnits="userSpaceOnUse"
      gradientTransform="translate(27.9797 27.7082) rotate(90) scale(33.0827)"
    >
<stop stop-color="white" />
<stop offset="1" stop-color="white" stop-opacity="0" />
</radialGradient>
<clipPath id="clip0_564_577">
<rect y="0.784424" width="55.4311" height="55.4311" rx="27.7155" fill="white" />
</clipPath>
</defs>
</svg>
