<svg
  width="171"
  height="27"
  viewBox="0 0 171 27"
  fill="none"
  xmlns="http://www.w3.org/2000/svg"
>
<path
    d="M16.6636 19.8897V13.4561H3.72621V5.29723H0.628906V0.618286H21.0492V5.29723H8.11178V8.80644H21.0492V19.8897H16.6636ZM19.3224 26.3232C17.5316 25.9723 15.7317 25.4069 13.9227 24.6271C13.1552 24.2957 12.342 23.9058 11.4832 23.4574C10.6243 23.009 9.75637 22.4923 8.87925 21.9075C8.00214 21.3226 7.12503 20.6695 6.24791 19.9482C5.3708 19.2073 4.53937 18.3788 3.75362 17.4625L8.05696 15.123C8.82443 16.0588 9.79291 16.9556 10.9624 17.8134C11.9674 18.5542 13.2374 19.2951 14.7724 20.0359C16.3256 20.7767 18.1894 21.3714 20.364 21.8197L19.3224 26.3232Z"
    fill="white"
  />
<path
    d="M24.2212 26.3232V21.6735H27.2363C27.2363 20.6208 27.1815 19.4315 27.0719 18.1058C26.9805 16.7801 26.8069 15.3862 26.5511 13.924C26.2952 12.4619 25.9481 10.951 25.5095 9.3913C25.0709 7.83166 24.4953 6.28176 23.7827 4.7416L26.88 0.618286C27.7206 2.21692 28.488 4.06901 29.1824 6.17453C29.4748 7.07133 29.758 8.07535 30.0321 9.1866C30.3245 10.2979 30.5803 11.5066 30.7996 12.8128C31.0371 14.0995 31.229 15.4837 31.3752 16.9653C31.5214 18.447 31.6036 20.0164 31.6219 21.6735H42.8599C42.8782 20.0164 42.9604 18.447 43.1066 16.9653C43.2528 15.4837 43.4355 14.0995 43.6548 12.8128C43.8923 11.5066 44.1482 10.3076 44.4223 9.21584C44.7146 8.1046 45.007 7.10057 45.2994 6.20377C45.9755 4.09825 46.7429 2.24617 47.6018 0.647529L50.6991 4.80009C49.9864 6.34024 49.4108 7.89014 48.9723 9.44979C48.5337 10.9899 48.1865 12.4911 47.9307 13.9533C47.6749 15.4154 47.4921 16.8094 47.3825 18.1351C47.2911 19.4413 47.2455 20.6208 47.2455 21.6735H50.1783V26.3232H24.2212ZM34.9659 20.5623V10.4148H39.4337V20.5623H34.9659Z"
    fill="white"
  />
<path
    d="M76.6928 26.294C75.2857 25.7871 74.0158 24.978 72.8828 23.8668C71.7682 22.775 70.754 21.5176 69.8403 20.0944C68.9449 18.6712 68.1592 17.1506 67.4831 15.5324C66.807 13.8948 66.2222 12.2864 65.7289 10.7073C65.2355 12.2864 64.6507 13.8948 63.9746 15.5324C63.2985 17.1506 62.5036 18.6712 61.59 20.0944C60.6946 21.5176 59.6804 22.775 58.5475 23.8668C57.4146 24.978 56.1537 25.7871 54.7649 26.294L53.0929 21.9952C54.1893 21.3908 55.2675 20.4843 56.3273 19.2756C56.7841 18.7492 57.2592 18.1351 57.7526 17.4332C58.246 16.7314 58.7394 15.9223 59.2327 15.006C59.7261 14.0702 60.2012 13.0272 60.6581 11.877C61.1332 10.7073 61.5717 9.40105 61.9737 7.95838H57.04V3.30868H63.0153C63.1798 2.47037 63.3168 1.59307 63.4264 0.676772H68.0313L68.4424 3.30868H74.3629V7.95838H69.5114C69.9134 9.40105 70.3428 10.7073 70.7997 11.877C71.2748 13.0272 71.7499 14.0702 72.225 15.006C72.7184 15.9223 73.2117 16.7314 73.7051 17.4332C74.1985 18.1351 74.6736 18.7492 75.1304 19.2756C76.1903 20.4843 77.2684 21.3908 78.3648 21.9952L76.6928 26.294ZM63.4813 22.4339V17.7549H67.9491V22.4339H63.4813Z"
    fill="white"
  />
<path
    d="M81.1184 22.2292C81.6118 21.5468 82.032 20.7572 82.3792 19.8604C82.7264 18.9441 83.0188 17.9791 83.2563 16.9653C83.4939 15.9516 83.6766 14.9183 83.8045 13.8655C83.9507 12.8128 84.0604 11.799 84.1335 10.8242C84.2248 9.82996 84.2796 8.91366 84.2979 8.07535C84.3162 7.23704 84.3253 6.5157 84.3253 5.91134V5.32647H81.1184V0.647529H101.539V15.1523H97.1531V13.5146H89.8621V8.83568H97.1531V5.32647H88.8205L88.8479 7.25654C88.8479 8.97215 88.7749 10.561 88.6287 12.0232C88.5008 13.4659 88.3272 14.8013 88.1079 16.0296C87.8886 17.2383 87.6419 18.3398 87.3678 19.3341C87.0937 20.3088 86.8105 21.1764 86.5181 21.9367C85.842 23.7303 85.0745 25.212 84.2157 26.3817L81.1184 22.2292Z"
    fill="white"
  />
<path
    d="M120.334 26.3817V25.6506C119.53 25.3972 118.598 25.056 117.539 24.6271C116.497 24.1982 115.401 23.6523 114.249 22.9895C113.098 22.3461 111.938 21.5663 110.768 20.65C109.599 19.7532 108.484 18.7005 107.424 17.4917L107.507 17.4332H107.369V5.32647H104.272V0.676772H124.692V5.32647H111.755V15.2107C111.828 15.3082 112.057 15.5617 112.44 15.9711C112.824 16.3805 113.363 16.8679 114.057 17.4332C114.752 17.9791 115.62 18.564 116.661 19.1878C117.703 19.7922 118.927 20.3478 120.334 20.8547V6.40848H124.692V26.3817H120.334Z"
    fill="white"
  />
<path
    d="M127.426 22.1999C128.139 21.2056 128.705 19.9872 129.125 18.5445C129.546 17.1018 129.865 15.6201 130.085 14.0995C130.322 12.5788 130.468 11.1167 130.523 9.71298C130.596 8.3093 130.633 7.13956 130.633 6.20377V5.29723H127.426V0.618286H147.846V15.123H143.461V13.4561H141.049C141.14 14.275 141.304 15.0353 141.542 15.7371C141.78 16.439 142.063 17.0921 142.392 17.6964C142.739 18.3008 143.113 18.8467 143.515 19.3341C143.917 19.8215 144.319 20.2601 144.722 20.65C145.672 21.5858 146.713 22.3559 147.846 22.9602L144.53 26.294C143.251 25.5532 142.154 24.7148 141.24 23.7791C140.345 22.8433 139.578 21.8587 138.938 20.8255C138.317 19.8117 137.814 18.7784 137.431 17.7257C137.065 16.6729 136.782 15.6689 136.581 14.7136C136.398 13.7388 136.27 12.8518 136.197 12.0525C136.142 11.2531 136.115 10.5805 136.115 10.0347C136.115 9.8397 136.115 9.66424 136.115 9.50828C136.115 9.35231 136.124 9.22559 136.142 9.12811C136.142 9.01114 136.151 8.90392 136.17 8.80644H143.461V5.29723H135.128L135.155 7.31502C135.155 9.01114 135.082 10.5805 134.936 12.0232C134.808 13.4659 134.635 14.8013 134.415 16.0296C134.196 17.2383 133.949 18.3398 133.675 19.3341C133.401 20.3088 133.118 21.1764 132.826 21.9367C132.15 23.7303 131.382 25.2022 130.523 26.3525L127.426 22.1999Z"
    fill="white"
  />
<path
    d="M155.459 22.1999C156.171 21.2056 156.738 19.9872 157.158 18.5445C157.578 17.1018 157.898 15.6201 158.117 14.0995C158.355 12.5788 158.501 11.1167 158.556 9.71298C158.629 8.3093 158.666 7.13956 158.666 6.20377V5.29723H150.58V0.618286H171V5.29723H163.161L163.188 7.31502C163.188 9.01114 163.115 10.5805 162.969 12.0232C162.841 13.4659 162.667 14.8013 162.448 16.0296C162.229 17.2383 161.982 18.3398 161.708 19.3341C161.434 20.3088 161.151 21.1764 160.858 21.9367C160.182 23.7303 159.415 25.2022 158.556 26.3525L155.459 22.1999Z"
    fill="white"
  />
</svg>
