<svg
  width="32"
  height="32"
  viewBox="0 0 32 32"
  fill="none"
  xmlns="http://www.w3.org/2000/svg"
>
<path
    d="M22.1653 18.5601L25.788 22.1814L15.984 31.9854L6.18133 22.1828L9.804 18.5601L15.9853 24.7734L22.1653 18.5601ZM28.348 12.3788L32 16.0001L28.38 19.6214L24.7573 16.0001L28.348 12.3788ZM15.9853 12.3788L19.6067 15.9681L15.984 19.5908L12.3627 16.0001L15.984 12.3801L15.9853 12.3788ZM3.62133 12.3788L7.21333 16.0001L3.624 19.5894L0 16.0001L3.62133 12.3788ZM15.9867 0.0134277L25.7893 9.78676L22.1667 13.4068L15.9853 7.22543L9.80533 13.4388L6.18267 9.81743L15.9853 0.0147611L15.9867 0.0134277Z"
    fill="#F3BA2F"
  />
</svg>
