<svg
  width="30"
  height="30"
  viewBox="0 0 30 30"
  fill="none"
  xmlns="http://www.w3.org/2000/svg"
>
<path
    fill-rule="evenodd"
    clip-rule="evenodd"
    d="M15 30C6.71531 30 0 23.2847 0 15C0 6.71531 6.71531 0 15 0C23.2847 0 30 6.71531 30 15C30 23.2847 23.2847 30 15 30ZM16.8019 12.9309V10.7128H21.8775V7.33031H8.05781V10.7128H13.1334V12.93C9.00844 13.1194 5.90625 13.9369 5.90625 14.9156C5.90625 15.8944 9.00844 16.7109 13.1334 16.9012V24.0094H16.8019V16.8994C20.9203 16.71 24.015 15.8934 24.015 14.9156C24.015 13.9378 20.9203 13.1213 16.8019 12.9309ZM16.8019 16.2966V16.2947C16.6988 16.3022 16.1672 16.3341 14.9812 16.3341C14.0344 16.3341 13.3678 16.3059 13.1334 16.2947V16.2975C9.48844 16.1372 6.76781 15.5025 6.76781 14.7431C6.76781 13.9847 9.48844 13.35 13.1334 13.1869V15.6656C13.3716 15.6825 14.0541 15.7228 14.9972 15.7228C16.1287 15.7228 16.6959 15.6759 16.8019 15.6666V13.1888C20.4394 13.3509 23.1534 13.9856 23.1534 14.7431C23.1534 15.5025 20.4394 16.1353 16.8019 16.2966Z"
    fill="#4D997B"
  />
</svg>
