<svg
  width="24"
  height="31"
  viewBox="0 0 24 31"
  fill="none"
  xmlns="http://www.w3.org/2000/svg"
>
<path
    fill-rule="evenodd"
    clip-rule="evenodd"
    d="M14.9614 0.750732L12.6519 2.68936V6.29043V8.89535V14.4504V17.652V27.0378L12.0483 27.4482L11.5345 27.0378V16.7461L12.6519 17.652V14.4504L11.4566 13.6469V8.89535H12.6519V6.29043H11.4742V2.68936L9.17545 0.750732V6.29043H0.166992L0.552401 8.88108L9.17545 15.111V25.1533L4.41803 21.4102L4.25651 19.8323L1.67219 17.9065L2.23192 22.8991L12.0483 30.7507L21.6679 22.8991L21.8326 20.7217L14.9614 16.011V19.2276L18.7732 21.9996L14.9614 25.1533V19.2276V16.011V8.89535V6.29043V0.750732ZM9.17545 12.0309V8.89535H4.60234L9.17545 12.0309Z"
    fill="#7A18D5"
  />
<path
    d="M23.3798 6.29043H14.9614V8.89535L20.5698 8.88108L20.1207 13.4775L22.4502 15.4421L23.3798 6.29043Z"
    fill="#7A18D5"
  />
</svg>
