<svg
  width="32"
  height="33"
  viewBox="0 0 32 33"
  fill="none"
  xmlns="http://www.w3.org/2000/svg"
>
<path
    d="M22.1653 18.654L25.788 22.2753L15.984 32.0793L6.18133 22.2767L9.804 18.654L15.9853 24.8673L22.1653 18.654V18.654ZM28.348 12.4727L32 16.094L28.38 19.7153L24.7573 16.094L28.348 12.4727V12.4727ZM15.9853 12.4727L19.6067 16.062L15.984 19.6847L12.3627 16.094L15.984 12.474L15.9853 12.4727ZM3.62133 12.4727L7.21333 16.094L3.624 19.6833L0 16.094L3.62133 12.4727V12.4727ZM15.9867 0.107328L25.7893 9.88066L22.1667 13.5007L15.9853 7.31933L9.80533 13.5327L6.18267 9.91133L15.9853 0.108662L15.9867 0.107328Z"
    fill="#F3BA2F"
  />
</svg>
