<svg
  width="40"
  height="40"
  viewBox="0 0 40 40"
  fill="none"
  xmlns="http://www.w3.org/2000/svg"
>
<path
    d="M5.88281 5.88232H33.6117L33.2977 9.14315L6.29105 9.08247L5.88281 5.88232Z"
    fill="#7A18D5"
  />
<path
    d="M11.0324 23.2324L20.0922 30.1484L20.4448 32.1449L20.0922 34.0462L8.39453 25.0979L11.0324 23.2324Z"
    fill="#7A18D5"
  />
<path
    d="M10.8753 21.5798L11.0481 23.2785L10.0193 24.4638L8.3945 25.0985L7.625 19.2139L10.8753 21.5798Z"
    fill="#7A18D5"
  />
<path
    d="M28.9169 23.324L20.0926 30.149L19.9199 32.0751L20.0926 34.0468L31.6175 25.0227L30.9221 22.0762L28.9169 23.324Z"
    fill="#7A18D5"
  />
<path
    d="M15.2725 19.9414H26.5933L25.4784 22.7776H14.4717L15.2725 19.9414Z"
    fill="#7A18D5"
  />
<path
    d="M6.28223 8.97963L9.60359 8.74902L10.2159 16.2262L7.37398 17.5305L6.28223 8.97963Z"
    fill="#7A18D5"
  />
<path
    d="M7.37402 17.5305L10.1846 16.1504L15.5074 19.9723L14.4699 22.7782L7.37402 17.5305Z"
    fill="#7A18D5"
  />
<path
    d="M7.37402 17.5305L10.1846 16.1504L15.5074 19.9723L14.4699 22.7782L7.37402 17.5305Z"
    fill="#7A18D5"
  />
<path
    d="M30.4392 8.78418L33.3284 8.80971L32.5433 16.5599L29.874 14.4062L30.4392 8.78418Z"
    fill="#7A18D5"
  />
<path d="M25.8241 12.5859H14.4248V15.4373H25.8241V12.5859Z" fill="#7A18D5" />
<path
    d="M25.8265 12.5859L32.3247 17.7729L29.8282 19.4716L23.8984 14.8914L25.8265 12.5859Z"
    fill="#7A18D5"
  />
<path
    d="M32.3233 17.7728L31.6167 25.0224L28.916 23.3237L29.3331 17.6211L32.3233 17.7728Z"
    fill="#7A18D5"
  />
<path
    d="M10.7188 15.5434L14.4243 12.5859L16.4184 14.4514L13.0583 17.1358L10.7188 15.5434Z"
    fill="#7A18D5"
  />
<path
    d="M24.5664 19.9267L26.7333 18.2129L28.586 19.8963L25.4771 22.778L24.5664 19.9267Z"
    fill="#7A18D5"
  />
</svg>
