<svg
  width="1920"
  height="1080"
  viewBox="0 0 1920 1080"
  fill="none"
  xmlns="http://www.w3.org/2000/svg"
>
<g opacity="0.2">
<path
      opacity="0.3"
      d="M15.7598 520.867L161.39 601.931C162.339 602.459 163.528 602.12 164.056 601.172C164.584 600.223 164.246 599.033 163.297 598.505L17.6669 517.441L15.7598 520.867Z"
      fill="url(#paint0_linear_586_1162)"
    />
<path
      d="M792.475 443.023L938.105 524.088C939.053 524.616 940.243 524.277 940.771 523.329C941.299 522.38 940.96 521.19 940.012 520.662L794.382 439.597L792.475 443.023Z"
      fill="url(#paint1_linear_586_1162)"
    />
<path
      opacity="0.6"
      d="M246.76 162.866L392.39 243.931C393.338 244.459 394.528 244.12 395.056 243.171C395.584 242.223 395.246 241.033 394.297 240.505L248.667 159.44L246.76 162.866Z"
      fill="url(#paint2_linear_586_1162)"
    />
<path
      opacity="0.3"
      d="M1678.76 41.8662L1824.39 122.931C1825.34 123.459 1826.53 123.12 1827.06 122.171C1827.58 121.223 1827.25 120.033 1826.3 119.505L1680.67 38.4402L1678.76 41.8662Z"
      fill="url(#paint3_linear_586_1162)"
    />
<path
      opacity="0.4"
      d="M1547.76 603.866L1693.39 684.931C1694.34 685.459 1695.53 685.12 1696.06 684.171C1696.58 683.223 1696.25 682.033 1695.3 681.505L1549.67 600.44L1547.76 603.866Z"
      fill="url(#paint4_linear_586_1162)"
    />
<path
      d="M15.3745 327.585C13.8156 328.029 12.9061 329.663 13.3501 331.222C13.794 332.78 15.428 333.69 16.9869 333.246C18.5458 332.802 19.4553 331.168 19.0113 329.609C18.5673 328.05 16.9334 327.141 15.3745 327.585Z"
      fill="white"
    />
<path
      d="M377.412 732.557C375.853 733.001 374.943 734.635 375.387 736.194C375.831 737.753 377.465 738.662 379.024 738.218C380.583 737.774 381.492 736.141 381.048 734.582C380.604 733.023 378.97 732.113 377.412 732.557Z"
      fill="white"
    />
<path
      d="M576.791 313.026C575.233 313.47 574.323 315.104 574.767 316.662C575.211 318.221 576.845 319.131 578.404 318.687C579.963 318.243 580.872 316.609 580.428 315.05C579.984 313.491 578.35 312.582 576.791 313.026Z"
      fill="white"
    />
<path
      d="M655 191.714C653.442 192.158 652.532 193.792 652.976 195.351C653.42 196.91 655.054 197.819 656.613 197.375C658.172 196.931 659.081 195.298 658.637 193.739C658.193 192.18 656.559 191.27 655 191.714Z"
      fill="white"
    />
<path
      d="M1076.2 504.395C1074.64 504.839 1073.73 506.473 1074.18 508.032C1074.62 509.591 1076.26 510.501 1077.81 510.057C1079.37 509.613 1080.28 507.979 1079.84 506.42C1079.39 504.861 1077.76 503.951 1076.2 504.395Z"
      fill="white"
    />
<path
      d="M647.387 394.748C645.828 395.192 644.919 396.826 645.363 398.385C645.807 399.944 647.441 400.853 649 400.41C650.558 399.966 651.468 398.332 651.024 396.773C650.58 395.214 648.946 394.304 647.387 394.748Z"
      fill="white"
    />
<path
      d="M420.572 372.377C419.013 372.821 418.103 374.455 418.547 376.014C418.991 377.573 420.625 378.483 422.184 378.039C423.743 377.595 424.653 375.961 424.209 374.402C423.765 372.843 422.131 371.933 420.572 372.377Z"
      fill="white"
    />
<path
      d="M847.031 549.397C845.472 549.841 844.562 551.475 845.006 553.034C845.45 554.593 847.084 555.502 848.643 555.058C850.202 554.614 851.112 552.98 850.668 551.421C850.224 549.863 848.59 548.953 847.031 549.397Z"
      fill="white"
    />
<path
      d="M588.398 194.585C586.839 195.029 585.93 196.663 586.373 198.222C586.817 199.781 588.451 200.69 590.01 200.246C591.569 199.802 592.479 198.168 592.035 196.609C591.591 195.05 589.957 194.141 588.398 194.585Z"
      fill="white"
    />
<path
      d="M482.053 618.312C480.494 618.756 479.585 620.389 480.029 621.948C480.473 623.507 482.107 624.417 483.666 623.973C485.224 623.529 486.134 621.895 485.69 620.336C485.246 618.777 483.612 617.868 482.053 618.312Z"
      fill="white"
    />
<path
      d="M734.908 214.284C733.349 214.728 732.439 216.362 732.883 217.921C733.327 219.48 734.961 220.389 736.52 219.945C738.079 219.501 738.988 217.867 738.545 216.308C738.101 214.75 736.467 213.84 734.908 214.284Z"
      fill="white"
    />
<path
      d="M384.11 442.901C382.551 443.345 381.641 444.979 382.085 446.538C382.529 448.097 384.163 449.006 385.722 448.562C387.281 448.118 388.191 446.484 387.747 444.925C387.291 443.326 385.669 442.457 384.11 442.901Z"
      fill="white"
    />
<path
      d="M488.503 244.191C486.945 244.635 486.035 246.269 486.479 247.827C486.923 249.386 488.557 250.296 490.116 249.852C491.675 249.408 492.584 247.774 492.14 246.215C491.696 244.656 490.062 243.747 488.503 244.191Z"
      fill="white"
    />
<path
      d="M73.3061 260.968C71.7472 261.412 70.8377 263.046 71.2817 264.605C71.7257 266.163 73.3596 267.073 74.9185 266.629C76.4774 266.185 77.3869 264.551 76.9429 262.992C76.4989 261.433 74.865 260.524 73.3061 260.968Z"
      fill="white"
    />
<path
      d="M608.288 629.547C606.73 629.991 605.82 631.624 606.264 633.183C606.708 634.742 608.342 635.652 609.901 635.208C611.46 634.764 612.369 633.13 611.925 631.571C611.481 630.012 609.847 629.103 608.288 629.547Z"
      fill="white"
    />
<path
      d="M309.48 132.765C307.921 133.209 307.012 134.843 307.456 136.402C307.9 137.961 309.533 138.871 311.092 138.427C312.651 137.983 313.561 136.349 313.117 134.79C312.673 133.231 311.039 132.321 309.48 132.765Z"
      fill="white"
    />
<path
      d="M180.874 296.503C179.316 296.947 178.406 298.581 178.85 300.139C179.294 301.698 180.928 302.608 182.487 302.164C184.046 301.72 184.955 300.086 184.511 298.527C184.026 296.98 182.433 296.059 180.874 296.503Z"
      fill="white"
    />
<path
      d="M963.617 451.705C962.058 452.149 961.148 453.783 961.592 455.342C962.036 456.901 963.67 457.81 965.229 457.366C966.788 456.922 967.697 455.288 967.253 453.729C966.798 452.129 965.175 451.261 963.617 451.705Z"
      fill="white"
    />
<path
      d="M760.18 430.525C758.621 430.969 757.712 432.603 758.156 434.162C758.6 435.721 760.234 436.63 761.793 436.186C763.351 435.742 764.261 434.108 763.817 432.55C763.373 430.991 761.739 430.081 760.18 430.525Z"
      fill="white"
    />
<path
      d="M167.783 124.249C166.224 124.693 165.314 126.327 165.758 127.886C166.202 129.444 167.836 130.354 169.395 129.91C170.954 129.466 171.863 127.832 171.419 126.273C170.923 124.685 169.342 123.805 167.783 124.249Z"
      fill="white"
    />
<path
      d="M648.27 99.2526C646.711 99.6966 645.802 101.331 646.246 102.889C646.69 104.448 648.323 105.358 649.882 104.914C651.441 104.47 652.351 102.836 651.907 101.277C651.451 99.6772 649.829 98.8087 648.27 99.2526Z"
      fill="white"
    />
<path
      d="M1048.78 552.341C1047.22 552.785 1046.32 554.419 1046.76 555.978C1047.2 557.537 1048.84 558.447 1050.4 558.003C1051.95 557.559 1052.86 555.925 1052.42 554.366C1051.98 552.807 1050.34 551.897 1048.78 552.341Z"
      fill="white"
    />
<path
      d="M1040.78 415.758C1039.22 416.202 1038.31 417.836 1038.75 419.395C1039.2 420.954 1040.83 421.864 1042.39 421.42C1043.95 420.976 1044.86 419.342 1044.42 417.783C1043.97 416.224 1042.34 415.314 1040.78 415.758Z"
      fill="white"
    />
<path
      d="M482.789 222.622C481.23 223.066 480.32 224.7 480.764 226.258C481.208 227.817 482.842 228.727 484.401 228.283C485.96 227.839 486.869 226.205 486.425 224.646C485.981 223.087 484.347 222.178 482.789 222.622Z"
      fill="white"
    />
<path
      d="M277.671 218.241C276.112 218.685 275.203 220.319 275.647 221.878C276.091 223.437 277.725 224.346 279.284 223.902C280.843 223.458 281.752 221.824 281.308 220.265C280.864 218.706 279.23 217.797 277.671 218.241Z"
      fill="white"
    />
<path
      d="M39.4204 25.623C37.8615 26.067 36.952 27.7008 37.396 29.2597C37.8399 30.8186 39.4739 31.7281 41.0328 31.2841C42.5917 30.8401 43.5012 29.2062 43.0572 27.6473C42.6132 26.0884 40.9793 25.179 39.4204 25.623Z"
      fill="white"
    />
<path
      d="M217.565 364.332C216.006 364.776 215.097 366.41 215.541 367.969C215.984 369.528 217.618 370.437 219.177 369.993C220.736 369.549 221.646 367.915 221.202 366.356C220.758 364.797 219.124 363.888 217.565 364.332Z"
      fill="white"
    />
<path
      d="M15.5776 289.029C14.0187 289.473 13.1092 291.107 13.5532 292.666C13.9972 294.225 15.6311 295.134 17.19 294.69C18.7489 294.246 19.6584 292.612 19.2144 291.053C18.7704 289.494 17.1365 288.585 15.5776 289.029Z"
      fill="white"
    />
<path
      d="M246.715 471.299C245.156 471.743 244.247 473.377 244.691 474.936C245.135 476.495 246.769 477.405 248.328 476.961C249.887 476.517 250.796 474.883 250.352 473.324C249.867 471.777 248.274 470.855 246.715 471.299Z"
      fill="white"
    />
<path
      d="M187.856 352.037C186.297 352.481 185.388 354.115 185.832 355.674C186.275 357.233 187.909 358.143 189.468 357.699C191.027 357.255 191.937 355.621 191.493 354.062C191.049 352.503 189.415 351.593 187.856 352.037Z"
      fill="white"
    />
<path
      d="M681.791 1068.03C680.233 1068.47 679.323 1070.1 679.767 1071.66C680.211 1073.22 681.845 1074.13 683.404 1073.69C684.963 1073.24 685.872 1071.61 685.428 1070.05C684.984 1068.49 683.35 1067.58 681.791 1068.03Z"
      fill="white"
    />
<path
      d="M760 946.714C758.442 947.158 757.532 948.792 757.976 950.351C758.42 951.91 760.054 952.82 761.613 952.376C763.172 951.932 764.081 950.298 763.637 948.739C763.193 947.18 761.559 946.27 760 946.714Z"
      fill="white"
    />
<path
      d="M693.398 949.585C691.839 950.029 690.93 951.663 691.373 953.222C691.817 954.781 693.451 955.69 695.01 955.246C696.569 954.802 697.479 953.168 697.035 951.61C696.591 950.051 694.957 949.141 693.398 949.585Z"
      fill="white"
    />
<path
      d="M839.908 969.284C838.349 969.728 837.439 971.362 837.883 972.921C838.327 974.48 839.961 975.389 841.52 974.945C843.079 974.501 843.988 972.868 843.545 971.309C843.101 969.75 841.467 968.84 839.908 969.284Z"
      fill="white"
    />
<path
      d="M593.503 999.191C591.945 999.635 591.035 1001.27 591.479 1002.83C591.923 1004.39 593.557 1005.3 595.116 1004.85C596.675 1004.41 597.584 1002.77 597.14 1001.22C596.696 999.656 595.062 998.747 593.503 999.191Z"
      fill="white"
    />
<path
      d="M178.306 1015.97C176.747 1016.41 175.838 1018.05 176.282 1019.6C176.726 1021.16 178.36 1022.07 179.919 1021.63C181.477 1021.19 182.387 1019.55 181.943 1017.99C181.499 1016.43 179.865 1015.52 178.306 1015.97Z"
      fill="white"
    />
<path
      d="M414.48 887.766C412.921 888.21 412.012 889.844 412.456 891.402C412.9 892.961 414.533 893.871 416.092 893.427C417.651 892.983 418.561 891.349 418.117 889.79C417.673 888.231 416.039 887.322 414.48 887.766Z"
      fill="white"
    />
<path
      d="M285.874 1051.5C284.316 1051.95 283.406 1053.58 283.85 1055.14C284.294 1056.7 285.928 1057.61 287.487 1057.16C289.046 1056.72 289.955 1055.09 289.511 1053.53C289.026 1051.98 287.433 1051.06 285.874 1051.5Z"
      fill="white"
    />
<path
      d="M272.783 879.249C271.224 879.693 270.314 881.327 270.758 882.886C271.202 884.445 272.836 885.354 274.395 884.91C275.954 884.466 276.863 882.832 276.419 881.273C275.923 879.685 274.342 878.805 272.783 879.249Z"
      fill="white"
    />
<path
      d="M753.27 854.253C751.711 854.697 750.802 856.331 751.246 857.89C751.69 859.449 753.323 860.358 754.882 859.914C756.441 859.47 757.351 857.836 756.907 856.277C756.451 854.677 754.829 853.809 753.27 854.253Z"
      fill="white"
    />
<path
      d="M587.789 977.622C586.23 978.066 585.32 979.7 585.764 981.259C586.208 982.818 587.842 983.727 589.401 983.283C590.96 982.839 591.869 981.205 591.425 979.646C590.981 978.087 589.347 977.178 587.789 977.622Z"
      fill="white"
    />
<path
      d="M382.671 973.241C381.112 973.685 380.203 975.319 380.647 976.878C381.091 978.437 382.725 979.346 384.284 978.902C385.843 978.458 386.752 976.824 386.308 975.266C385.864 973.707 384.23 972.797 382.671 973.241Z"
      fill="white"
    />
<path
      d="M801.729 734.94C800.17 735.384 799.261 737.018 799.705 738.577C800.149 740.136 801.782 741.045 803.341 740.601C804.9 740.157 805.81 738.523 805.366 736.964C804.922 735.405 803.288 734.496 801.729 734.94Z"
      fill="white"
    />
<path
      d="M144.42 780.623C142.862 781.067 141.952 782.701 142.396 784.26C142.84 785.819 144.474 786.728 146.033 786.284C147.592 785.84 148.501 784.206 148.057 782.648C147.613 781.089 145.979 780.179 144.42 780.623Z"
      fill="white"
    />
<path
      d="M63.8442 856.041C62.2853 856.485 61.3758 858.119 61.8198 859.678C62.2638 861.237 63.8977 862.146 65.4566 861.702C67.0155 861.258 67.925 859.625 67.481 858.066C67.037 856.507 65.4031 855.597 63.8442 856.041Z"
      fill="white"
    />
<path
      d="M120.578 1044.03C119.019 1044.47 118.109 1046.11 118.553 1047.67C118.997 1049.22 120.631 1050.13 122.19 1049.69C123.749 1049.25 124.658 1047.61 124.214 1046.05C123.77 1044.49 122.137 1043.59 120.578 1044.03Z"
      fill="white"
    />
<path
      d="M1220.67 1016.37C1219.11 1016.81 1218.2 1018.45 1218.64 1020.01C1219.09 1021.56 1220.72 1022.47 1222.28 1022.03C1223.84 1021.59 1224.75 1019.95 1224.3 1018.39C1223.86 1016.83 1222.22 1015.93 1220.67 1016.37Z"
      fill="white"
    />
<path
      d="M1841.5 1071.19C1839.94 1071.64 1839.03 1073.27 1839.48 1074.83C1839.92 1076.39 1841.56 1077.3 1843.12 1076.85C1844.67 1076.41 1845.58 1074.77 1845.14 1073.22C1844.7 1071.66 1843.06 1070.75 1841.5 1071.19Z"
      fill="white"
    />
<path
      d="M1662.48 959.766C1660.92 960.21 1660.01 961.844 1660.46 963.403C1660.9 964.961 1662.53 965.871 1664.09 965.427C1665.65 964.983 1666.56 963.349 1666.12 961.79C1665.67 960.231 1664.04 959.322 1662.48 959.766Z"
      fill="white"
    />
<path
      d="M1520.78 951.249C1519.22 951.693 1518.31 953.327 1518.76 954.886C1519.2 956.445 1520.84 957.354 1522.4 956.91C1523.95 956.466 1524.86 954.832 1524.42 953.274C1523.92 951.685 1522.34 950.805 1520.78 951.249Z"
      fill="white"
    />
<path
      d="M1835.79 1049.62C1834.23 1050.07 1833.32 1051.7 1833.76 1053.26C1834.21 1054.82 1835.84 1055.73 1837.4 1055.28C1838.96 1054.84 1839.87 1053.21 1839.43 1051.65C1838.98 1050.09 1837.35 1049.18 1835.79 1049.62Z"
      fill="white"
    />
<path
      d="M1630.67 1045.24C1629.11 1045.69 1628.2 1047.32 1628.65 1048.88C1629.09 1050.44 1630.72 1051.35 1632.28 1050.9C1633.84 1050.46 1634.75 1048.82 1634.31 1047.27C1633.86 1045.71 1632.23 1044.8 1630.67 1045.24Z"
      fill="white"
    />
<path
      d="M1392.42 852.623C1390.86 853.067 1389.95 854.701 1390.4 856.26C1390.84 857.819 1392.47 858.728 1394.03 858.285C1395.59 857.841 1396.5 856.207 1396.06 854.648C1395.61 853.089 1393.98 852.179 1392.42 852.623Z"
      fill="white"
    />
<path
      d="M1224.34 879.298C1222.78 879.742 1221.87 881.375 1222.31 882.934C1222.75 884.493 1224.39 885.403 1225.95 884.959C1227.51 884.515 1228.42 882.881 1227.97 881.322C1227.53 879.763 1225.94 878.842 1224.34 879.298Z"
      fill="white"
    />
<path
      d="M1311.84 928.041C1310.29 928.485 1309.38 930.119 1309.82 931.678C1310.26 933.237 1311.9 934.147 1313.46 933.703C1315.02 933.259 1315.93 931.625 1315.48 930.066C1315.04 928.507 1313.4 927.597 1311.84 928.041Z"
      fill="white"
    />
<path
      d="M1210.37 444.584C1208.82 445.028 1207.91 446.662 1208.35 448.221C1208.79 449.78 1210.43 450.69 1211.99 450.246C1213.55 449.802 1214.46 448.168 1214.01 446.609C1213.57 445.05 1211.93 444.14 1210.37 444.584Z"
      fill="white"
    />
<path
      d="M1572.41 849.557C1570.85 850.001 1569.94 851.635 1570.39 853.194C1570.83 854.753 1572.47 855.662 1574.02 855.218C1575.58 854.774 1576.49 853.14 1576.05 851.581C1575.6 850.023 1573.97 849.113 1572.41 849.557Z"
      fill="white"
    />
<path
      d="M1771.79 430.025C1770.23 430.469 1769.32 432.103 1769.77 433.662C1770.21 435.221 1771.84 436.131 1773.4 435.687C1774.96 435.243 1775.87 433.609 1775.43 432.05C1774.98 430.491 1773.35 429.581 1771.79 430.025Z"
      fill="white"
    />
<path
      d="M1850 308.714C1848.44 309.158 1847.53 310.792 1847.98 312.351C1848.42 313.91 1850.05 314.819 1851.61 314.375C1853.17 313.931 1854.08 312.297 1853.64 310.738C1853.19 309.18 1851.56 308.27 1850 308.714Z"
      fill="white"
    />
<path
      d="M1842.39 511.748C1840.83 512.192 1839.92 513.826 1840.36 515.385C1840.81 516.944 1842.44 517.853 1844 517.409C1845.56 516.965 1846.47 515.331 1846.02 513.772C1845.58 512.214 1843.95 511.304 1842.39 511.748Z"
      fill="white"
    />
<path
      d="M1615.57 489.377C1614.01 489.821 1613.1 491.455 1613.55 493.014C1613.99 494.573 1615.63 495.482 1617.18 495.038C1618.74 494.594 1619.65 492.96 1619.21 491.402C1618.76 489.843 1617.13 488.933 1615.57 489.377Z"
      fill="white"
    />
<path
      d="M1783.4 311.585C1781.84 312.029 1780.93 313.662 1781.37 315.221C1781.82 316.78 1783.45 317.69 1785.01 317.246C1786.57 316.802 1787.48 315.168 1787.03 313.609C1786.59 312.05 1784.96 311.141 1783.4 311.585Z"
      fill="white"
    />
<path
      d="M1677.05 735.311C1675.49 735.755 1674.58 737.389 1675.03 738.948C1675.47 740.507 1677.11 741.416 1678.67 740.972C1680.22 740.529 1681.13 738.895 1680.69 737.336C1680.25 735.777 1678.61 734.867 1677.05 735.311Z"
      fill="white"
    />
<path
      d="M1062.67 306.368C1061.11 306.812 1060.2 308.446 1060.64 310.005C1061.09 311.564 1062.72 312.474 1064.28 312.03C1065.84 311.586 1066.75 309.952 1066.3 308.393C1065.86 306.834 1064.22 305.924 1062.67 306.368Z"
      fill="white"
    />
<path
      d="M1579.11 559.901C1577.55 560.345 1576.64 561.979 1577.09 563.538C1577.53 565.096 1579.16 566.006 1580.72 565.562C1582.28 565.118 1583.19 563.484 1582.75 561.925C1582.29 560.325 1580.67 559.457 1579.11 559.901Z"
      fill="white"
    />
<path
      d="M1683.5 361.19C1681.94 361.634 1681.03 363.268 1681.48 364.827C1681.92 366.386 1683.56 367.296 1685.12 366.852C1686.67 366.408 1687.58 364.774 1687.14 363.215C1686.7 361.656 1685.06 360.746 1683.5 361.19Z"
      fill="white"
    />
<path
      d="M1268.31 377.968C1266.75 378.411 1265.84 380.045 1266.28 381.604C1266.73 383.163 1268.36 384.073 1269.92 383.629C1271.48 383.185 1272.39 381.551 1271.94 379.992C1271.5 378.433 1269.87 377.524 1268.31 377.968Z"
      fill="white"
    />
<path
      d="M1803.29 746.546C1801.73 746.99 1800.82 748.624 1801.26 750.183C1801.71 751.742 1803.34 752.651 1804.9 752.207C1806.46 751.764 1807.37 750.13 1806.93 748.571C1806.48 747.012 1804.85 746.102 1803.29 746.546Z"
      fill="white"
    />
<path
      d="M1504.48 249.765C1502.92 250.209 1502.01 251.843 1502.46 253.402C1502.9 254.961 1504.53 255.87 1506.09 255.426C1507.65 254.982 1508.56 253.348 1508.12 251.79C1507.67 250.231 1506.04 249.321 1504.48 249.765Z"
      fill="white"
    />
<path
      d="M1375.87 413.502C1374.32 413.946 1373.41 415.58 1373.85 417.139C1374.29 418.698 1375.93 419.608 1377.49 419.164C1379.05 418.72 1379.96 417.086 1379.51 415.527C1379.03 413.98 1377.43 413.058 1375.87 413.502Z"
      fill="white"
    />
<path
      d="M1362.78 241.249C1361.22 241.693 1360.31 243.326 1360.76 244.885C1361.2 246.444 1362.84 247.354 1364.4 246.91C1365.95 246.466 1366.86 244.832 1366.42 243.273C1365.92 241.685 1364.34 240.805 1362.78 241.249Z"
      fill="white"
    />
<path
      d="M1843.27 216.252C1841.71 216.696 1840.8 218.33 1841.25 219.889C1841.69 221.448 1843.32 222.358 1844.88 221.914C1846.44 221.47 1847.35 219.836 1846.91 218.277C1846.45 216.677 1844.83 215.808 1843.27 216.252Z"
      fill="white"
    />
<path
      d="M1677.79 339.622C1676.23 340.065 1675.32 341.699 1675.76 343.258C1676.21 344.817 1677.84 345.727 1679.4 345.283C1680.96 344.839 1681.87 343.205 1681.43 341.646C1680.98 340.087 1679.35 339.178 1677.79 339.622Z"
      fill="white"
    />
<path
      d="M1472.67 335.241C1471.11 335.685 1470.2 337.319 1470.65 338.878C1471.09 340.436 1472.72 341.346 1474.28 340.902C1475.84 340.458 1476.75 338.824 1476.31 337.265C1475.86 335.706 1474.23 334.797 1472.67 335.241Z"
      fill="white"
    />
<path
      d="M1891.73 96.9394C1890.17 97.3834 1889.26 99.0174 1889.7 100.576C1890.15 102.135 1891.78 103.045 1893.34 102.601C1894.9 102.157 1895.81 100.523 1895.37 98.9639C1894.92 97.405 1893.29 96.4954 1891.73 96.9394Z"
      fill="white"
    />
<path
      d="M1234.42 142.623C1232.86 143.067 1231.95 144.701 1232.4 146.259C1232.84 147.818 1234.47 148.728 1236.03 148.284C1237.59 147.84 1238.5 146.206 1238.06 144.647C1237.61 143.088 1235.98 142.179 1234.42 142.623Z"
      fill="white"
    />
<path
      d="M1066.34 169.297C1064.78 169.741 1063.87 171.375 1064.31 172.934C1064.75 174.493 1066.39 175.402 1067.95 174.958C1069.51 174.514 1070.42 172.88 1069.97 171.321C1069.53 169.762 1067.94 168.841 1066.34 169.297Z"
      fill="white"
    />
<path
      d="M1153.84 218.041C1152.29 218.485 1151.38 220.119 1151.82 221.678C1152.26 223.236 1153.9 224.146 1155.46 223.702C1157.02 223.258 1157.93 221.624 1157.48 220.065C1157.04 218.506 1155.4 217.597 1153.84 218.041Z"
      fill="white"
    />
<path
      d="M1412.56 481.332C1411.01 481.776 1410.1 483.41 1410.54 484.968C1410.98 486.527 1412.62 487.437 1414.18 486.993C1415.74 486.549 1416.65 484.915 1416.2 483.356C1415.76 481.797 1414.12 480.888 1412.56 481.332Z"
      fill="white"
    />
<path
      d="M1210.58 406.029C1209.02 406.473 1208.11 408.107 1208.55 409.665C1209 411.224 1210.63 412.134 1212.19 411.69C1213.75 411.246 1214.66 409.612 1214.21 408.053C1213.77 406.494 1212.14 405.585 1210.58 406.029Z"
      fill="white"
    />
<path
      d="M1441.72 588.299C1440.16 588.743 1439.25 590.377 1439.69 591.936C1440.13 593.495 1441.77 594.404 1443.33 593.96C1444.89 593.516 1445.8 591.882 1445.35 590.323C1444.87 588.776 1443.27 587.855 1441.72 588.299Z"
      fill="white"
    />
<path
      d="M1382.86 469.037C1381.3 469.481 1380.39 471.115 1380.83 472.674C1381.28 474.233 1382.91 475.142 1384.47 474.698C1386.03 474.254 1386.94 472.62 1386.49 471.062C1386.05 469.503 1384.41 468.593 1382.86 469.037Z"
      fill="white"
    />
</g>
<defs>
<linearGradient
      id="paint0_linear_586_1162"
      x1="164.083"
      y1="601.167"
      x2="16.7169"
      y2="519.136"
      gradientUnits="userSpaceOnUse"
    >
<stop stop-color="white" />
<stop offset="1" stop-color="white" stop-opacity="0" />
</linearGradient>
<linearGradient
      id="paint1_linear_586_1162"
      x1="940.787"
      y1="523.328"
      x2="793.422"
      y2="441.297"
      gradientUnits="userSpaceOnUse"
    >
<stop stop-color="white" />
<stop offset="1" stop-color="white" stop-opacity="0" />
</linearGradient>
<linearGradient
      id="paint2_linear_586_1162"
      x1="395.082"
      y1="243.187"
      x2="247.716"
      y2="161.156"
      gradientUnits="userSpaceOnUse"
    >
<stop stop-color="white" />
<stop offset="1" stop-color="white" stop-opacity="0" />
</linearGradient>
<linearGradient
      id="paint3_linear_586_1162"
      x1="1827.08"
      y1="122.187"
      x2="1679.72"
      y2="40.156"
      gradientUnits="userSpaceOnUse"
    >
<stop stop-color="white" />
<stop offset="1" stop-color="white" stop-opacity="0" />
</linearGradient>
<linearGradient
      id="paint4_linear_586_1162"
      x1="1696.08"
      y1="684.187"
      x2="1548.72"
      y2="602.156"
      gradientUnits="userSpaceOnUse"
    >
<stop stop-color="white" />
<stop offset="1" stop-color="white" stop-opacity="0" />
</linearGradient>
</defs>
</svg>
