<svg
  width="337"
  height="324"
  viewBox="0 0 337 324"
  fill="none"
  xmlns="http://www.w3.org/2000/svg"
>
<path
    opacity="0.35"
    d="M72.1499 51.2959H251.264L337 324H0L72.1499 51.2959Z"
    fill="url(#paint0_linear_363_97)"
  />
<g filter="url(#filter0_d_363_97)">
<path
      d="M161.477 83.6376C178.115 83.6376 191.603 78.1073 191.603 71.2853C191.603 64.4633 178.115 58.933 161.477 58.933C144.839 58.933 131.352 64.4633 131.352 71.2853C131.352 78.1073 144.839 83.6376 161.477 83.6376Z"
      fill="#FFF1FA"
    />
</g>
<path
    d="M252.337 50.551C252.337 63.7186 211.655 74.3989 161.478 74.3989C111.298 74.3989 70.6182 63.7186 70.6182 50.551C70.6182 37.3834 111.298 20.616 161.478 20.616C211.655 20.619 252.337 37.3834 252.337 50.551Z"
    fill="url(#paint1_linear_363_97)"
  />
<path
    d="M252.337 50.5509C252.337 63.7185 211.655 74.3987 161.478 74.3987C111.298 74.3987 70.6182 63.7185 70.6182 50.5509C70.6182 37.3832 111.298 50.0408 161.478 50.0408C211.655 50.0408 252.337 37.3832 252.337 50.5509Z"
    fill="url(#paint2_linear_363_97)"
  />
<g filter="url(#filter1_ii_363_97)">
<path
      d="M198.392 27.7171C196.066 12.0914 180.447 0 161.477 0C142.516 0 126.894 12.0914 124.568 27.7171C124.568 27.7171 147.042 29.8337 161.477 29.8338C175.915 29.834 198.392 27.7171 198.392 27.7171Z"
      fill="url(#paint3_linear_363_97)"
    />
</g>
<path
    d="M98.6284 35.7731C99.1536 36.8316 98.2225 38.4209 97.8278 38.6403C97.4245 38.8538 95.6499 38.7322 95.1247 37.6737L86.192 17.0755C85.6697 16.023 85.5673 14.9852 85.9707 14.7718C86.3711 14.5583 87.1234 15.2344 87.6457 16.2899L98.6284 35.7731Z"
    fill="#048389"
  />
<path
    d="M85.966 17.947C87.7081 17.947 89.1204 16.4722 89.1204 14.653C89.1204 12.8337 87.7081 11.3589 85.966 11.3589C84.2238 11.3589 82.8115 12.8337 82.8115 14.653C82.8115 16.4722 84.2238 17.947 85.966 17.947Z"
    fill="#FFC0E8"
  />
<path
    d="M224.327 35.7731C223.805 36.8316 224.733 38.4209 225.131 38.6403C225.534 38.8538 227.306 38.7322 227.831 37.6737L236.764 17.0755C237.289 16.023 237.391 14.9852 236.985 14.7718C236.585 14.5583 235.838 15.2344 235.315 16.2899L224.327 35.7731Z"
    fill="#048389"
  />
<path
    d="M236.976 17.9501C238.719 17.9501 240.133 16.474 240.133 14.653C240.133 12.8321 238.719 11.356 236.976 11.356C235.232 11.356 233.818 12.8321 233.818 14.653C233.818 16.474 235.232 17.9501 236.976 17.9501Z"
    fill="#FFC0E8"
  />
<path
    d="M156.696 5.86395C151.595 5.19811 139.48 7.6617 131.829 22.8427C136.292 17.5161 147.514 6.66294 156.696 5.86395Z"
    fill="white"
  />
<defs>
<filter
      id="filter0_d_363_97"
      x="125.422"
      y="56.7769"
      width="72.1093"
      height="36.5629"
      filterUnits="userSpaceOnUse"
      color-interpolation-filters="sRGB"
    >
<feFlood flood-opacity="0" result="BackgroundImageFix" />
<feColorMatrix
        in="SourceAlpha"
        type="matrix"
        values="0 0 0 0 0 0 0 0 0 0 0 0 0 0 0 0 0 0 127 0"
        result="hardAlpha"
      />
<feOffset dy="3.7731" />
<feGaussianBlur stdDeviation="2.96458" />
<feColorMatrix
        type="matrix"
        values="0 0 0 0 0.968627 0 0 0 0 0.65098 0 0 0 0 0.945098 0 0 0 0.7 0"
      />
<feBlend
        mode="normal"
        in2="BackgroundImageFix"
        result="effect1_dropShadow_363_97"
      />
<feBlend
        mode="normal"
        in="SourceGraphic"
        in2="effect1_dropShadow_363_97"
        result="shape"
      />
</filter>
<filter
      id="filter1_ii_363_97"
      x="124.139"
      y="-0.428881"
      width="75.3243"
      height="31.3349"
      filterUnits="userSpaceOnUse"
      color-interpolation-filters="sRGB"
    >
<feFlood flood-opacity="0" result="BackgroundImageFix" />
<feBlend
        mode="normal"
        in="SourceGraphic"
        in2="BackgroundImageFix"
        result="shape"
      />
<feColorMatrix
        in="SourceAlpha"
        type="matrix"
        values="0 0 0 0 0 0 0 0 0 0 0 0 0 0 0 0 0 0 127 0"
        result="hardAlpha"
      />
<feOffset dx="-1.07803" dy="-1.07803" />
<feGaussianBlur stdDeviation="0.21444" />
<feComposite in2="hardAlpha" operator="arithmetic" k2="-1" k3="1" />
<feColorMatrix
        type="matrix"
        values="0 0 0 0 0.227451 0 0 0 0 0.223529 0 0 0 0 0.52549 0 0 0 0.15 0"
      />
<feBlend mode="normal" in2="shape" result="effect1_innerShadow_363_97" />
<feColorMatrix
        in="SourceAlpha"
        type="matrix"
        values="0 0 0 0 0 0 0 0 0 0 0 0 0 0 0 0 0 0 127 0"
        result="hardAlpha"
      />
<feOffset dx="1.07803" dy="1.07803" />
<feGaussianBlur stdDeviation="0.536101" />
<feComposite in2="hardAlpha" operator="arithmetic" k2="-1" k3="1" />
<feColorMatrix
        type="matrix"
        values="0 0 0 0 1 0 0 0 0 1 0 0 0 0 1 0 0 0 0.3 0"
      />
<feBlend
        mode="normal"
        in2="effect1_innerShadow_363_97"
        result="effect2_innerShadow_363_97"
      />
</filter>
<linearGradient
      id="paint0_linear_363_97"
      x1="161.883"
      y1="51.2959"
      x2="164.112"
      y2="316.763"
      gradientUnits="userSpaceOnUse"
    >
<stop stop-color="white" />
<stop offset="1" stop-color="white" stop-opacity="0" />
</linearGradient>
<linearGradient
      id="paint1_linear_363_97"
      x1="77.3131"
      y1="40.8202"
      x2="248.512"
      y2="39.9044"
      gradientUnits="userSpaceOnUse"
    >
<stop stop-color="#FEE0FF" />
<stop offset="1" stop-color="#C096CB" />
</linearGradient>
<linearGradient
      id="paint2_linear_363_97"
      x1="70.6182"
      y1="49.8088"
      x2="252.337"
      y2="49.8088"
      gradientUnits="userSpaceOnUse"
    >
<stop stop-color="#6867AE" />
<stop offset="1" stop-color="#292978" />
</linearGradient>
<linearGradient
      id="paint3_linear_363_97"
      x1="131.829"
      y1="11.8563"
      x2="198.833"
      y2="18.2727"
      gradientUnits="userSpaceOnUse"
    >
<stop stop-color="#DFE4FF" />
<stop offset="1" stop-color="#8798EF" />
</linearGradient>
</defs>
</svg>
