<svg
  width="31"
  height="19"
  viewBox="0 0 31 19"
  fill="none"
  xmlns="http://www.w3.org/2000/svg"
>
<path
    d="M6.34865 3.72361C11.4028 -1.19463 19.5972 -1.19463 24.6514 3.72361L25.2597 4.31553C25.5124 4.56145 25.5124 4.96015 25.2597 5.20606L23.1789 7.2309C23.0525 7.35385 22.8477 7.35385 22.7213 7.2309L21.8842 6.41635C18.3583 2.98526 12.6417 2.98526 9.1158 6.41635L8.21937 7.28866C8.09302 7.41162 7.88816 7.41162 7.76181 7.28866L5.68101 5.26383C5.42831 5.01791 5.42831 4.61921 5.68101 4.3733L6.34865 3.72361ZM28.9547 7.91119L30.8066 9.7133C31.0593 9.95921 31.0593 10.3579 30.8066 10.6038L22.4562 18.7298C22.2035 18.9757 21.7938 18.9757 21.5411 18.7298C21.5411 18.7298 21.541 18.7298 21.541 18.7298L15.6145 12.9626C15.5513 12.9011 15.4488 12.9011 15.3857 12.9626C15.3857 12.9626 15.3857 12.9626 15.3857 12.9626L9.4592 18.7298C9.20649 18.9757 8.79677 18.9757 8.54406 18.7298C8.54406 18.7298 8.54406 18.7298 8.54406 18.7298L0.193437 10.6037C-0.0592707 10.3578 -0.0592707 9.95911 0.193437 9.7132L2.04535 7.91109C2.29806 7.66517 2.70778 7.66517 2.96049 7.91109L8.88717 13.6784C8.95035 13.7399 9.05278 13.7399 9.11595 13.6784C9.11595 13.6784 9.11595 13.6784 9.11596 13.6784L15.0423 7.91109C15.295 7.66517 15.7048 7.66516 15.9575 7.91107C15.9575 7.91107 15.9575 7.91107 15.9575 7.91108L21.8842 13.6784C21.9473 13.7399 22.0498 13.7399 22.1129 13.6784L28.0395 7.91119C28.2922 7.66528 28.702 7.66528 28.9547 7.91119Z"
    fill="#3B99FC"
  />
</svg>
