<svg
  width="32"
  height="32"
  viewBox="0 0 32 32"
  fill="none"
  xmlns="http://www.w3.org/2000/svg"
>
<path
    d="M16 0C24.837 0 32 7.163 32 16C32 24.837 24.837 32 16 32C7.163 32 0 24.837 0 16C0 7.163 7.163 0 16 0ZM19.352 5.56C19.108 5.44 18.864 5.56 18.804 5.803C18.743 5.864 18.743 5.925 18.743 6.046V6.896L18.753 7C18.8052 7.20573 18.9316 7.38489 19.108 7.503C23.862 9.203 26.3 14.483 24.532 19.156C23.618 21.706 21.607 23.647 19.108 24.558C18.864 24.679 18.743 24.861 18.743 25.165V26.015L18.748 26.103C18.7575 26.199 18.7976 26.2895 18.8625 26.3609C18.9273 26.4324 19.0134 26.4812 19.108 26.5C19.169 26.5 19.291 26.5 19.352 26.44C20.7236 26.0117 21.9969 25.3163 23.0986 24.3938C24.2003 23.4714 25.1086 22.3401 25.7714 21.0652C26.4341 19.7902 26.838 18.3968 26.96 16.9651C27.082 15.5334 26.9195 14.0917 26.482 12.723C25.386 9.263 22.704 6.652 19.352 5.56ZM12.892 5.5C12.831 5.5 12.709 5.5 12.648 5.56C11.2764 5.98832 10.0031 6.68373 8.90142 7.60617C7.79971 8.52862 6.89135 9.65988 6.22864 10.9348C5.56594 12.2098 5.16197 13.6032 5.04001 15.0349C4.91805 16.4666 5.08049 17.9083 5.518 19.277C6.614 22.677 9.235 25.287 12.648 26.379C12.892 26.5 13.136 26.379 13.196 26.136C13.257 26.076 13.257 26.014 13.257 25.893V25.043L13.247 24.963C13.205 24.794 13.048 24.601 12.892 24.497C8.138 22.797 5.7 17.517 7.468 12.844C8.382 10.294 10.393 8.353 12.892 7.442C13.136 7.321 13.257 7.139 13.257 6.835V5.985L13.252 5.897C13.2425 5.80097 13.2024 5.71055 13.1375 5.63907C13.0727 5.56758 12.9866 5.51883 12.892 5.5ZM16.427 8.656H15.512L15.424 8.664C15.224 8.704 15.078 8.876 15.024 9.142V10.538L14.817 10.57C13.109 10.874 12.039 12.053 12.039 13.512C12.039 15.514 13.257 16.303 15.817 16.607C17.524 16.91 18.072 17.275 18.072 18.246C18.072 19.216 17.219 19.884 16.061 19.884C14.476 19.884 13.928 19.217 13.745 18.306C13.685 18.064 13.501 17.942 13.318 17.942H12.282L12.203 17.949C12.1044 17.9649 12.0149 18.0161 11.9511 18.0929C11.8873 18.1698 11.8535 18.2671 11.856 18.367V18.427L11.889 18.607C12.179 20.031 13.155 21.05 15.086 21.341V22.798L15.094 22.886C15.134 23.084 15.307 23.23 15.574 23.283H16.488L16.576 23.275C16.776 23.235 16.922 23.063 16.976 22.798V21.34L17.183 21.3C18.896 20.938 20.023 19.699 20.023 18.123C20.023 15.999 18.743 15.271 16.183 14.967C14.354 14.724 13.989 14.239 13.989 13.389C13.989 12.539 14.599 11.993 15.817 11.993C16.914 11.993 17.524 12.357 17.828 13.268C17.8597 13.3561 17.9176 13.4324 17.9939 13.4865C18.0703 13.5407 18.1614 13.5702 18.255 13.571H19.23L19.309 13.565C19.408 13.5493 19.4978 13.4981 19.5619 13.421C19.6259 13.3439 19.6597 13.2462 19.657 13.146V13.086L19.62 12.913C19.4699 12.2914 19.1275 11.733 18.6417 11.3172C18.1559 10.9014 17.5513 10.6494 16.914 10.597V9.142L16.906 9.054C16.866 8.855 16.694 8.709 16.427 8.656Z"
    fill="#3B99FC"
  />
<path
    d="M19.352 5.56C19.108 5.44 18.864 5.56 18.804 5.803C18.743 5.864 18.743 5.925 18.743 6.046V6.896L18.753 7C18.8052 7.20573 18.9316 7.38489 19.108 7.503C23.862 9.203 26.3 14.483 24.532 19.156C23.618 21.706 21.607 23.647 19.108 24.558C18.864 24.679 18.743 24.861 18.743 25.165V26.015L18.748 26.103C18.7575 26.199 18.7976 26.2895 18.8625 26.3609C18.9273 26.4324 19.0134 26.4812 19.108 26.5C19.169 26.5 19.291 26.5 19.352 26.44C20.7236 26.0117 21.9969 25.3163 23.0986 24.3938C24.2003 23.4714 25.1086 22.3401 25.7714 21.0652C26.4341 19.7902 26.838 18.3968 26.96 16.9651C27.082 15.5334 26.9195 14.0917 26.482 12.723C25.386 9.263 22.704 6.652 19.352 5.56Z"
    fill="white"
  />
<path
    d="M16.427 8.656H15.512L15.424 8.664C15.224 8.704 15.078 8.876 15.024 9.142V10.538L14.817 10.57C13.109 10.874 12.039 12.053 12.039 13.512C12.039 15.514 13.257 16.303 15.817 16.607C17.524 16.91 18.072 17.275 18.072 18.246C18.072 19.216 17.219 19.884 16.061 19.884C14.476 19.884 13.928 19.217 13.745 18.306C13.685 18.064 13.501 17.942 13.318 17.942H12.282L12.203 17.949C12.1044 17.9649 12.0149 18.0161 11.9511 18.0929C11.8873 18.1698 11.8535 18.2671 11.856 18.367V18.427L11.889 18.607C12.179 20.031 13.155 21.05 15.086 21.341V22.798L15.094 22.886C15.134 23.084 15.307 23.23 15.574 23.283H16.488L16.576 23.275C16.776 23.235 16.922 23.063 16.976 22.798V21.34L17.183 21.3C18.896 20.938 20.023 19.699 20.023 18.123C20.023 15.999 18.743 15.271 16.183 14.967C14.354 14.724 13.989 14.239 13.989 13.389C13.989 12.539 14.599 11.993 15.817 11.993C16.914 11.993 17.524 12.357 17.828 13.268C17.8597 13.3561 17.9176 13.4324 17.9939 13.4865C18.0703 13.5407 18.1614 13.5702 18.255 13.571H19.23L19.309 13.565C19.408 13.5493 19.4978 13.4981 19.5619 13.421C19.6259 13.3439 19.6597 13.2462 19.657 13.146V13.086L19.62 12.913C19.4699 12.2914 19.1275 11.733 18.6417 11.3172C18.1559 10.9014 17.5513 10.6494 16.914 10.597V9.142L16.906 9.054C16.866 8.855 16.694 8.709 16.427 8.656Z"
    fill="white"
  />
<path
    d="M12.892 5.5C12.831 5.5 12.709 5.5 12.648 5.56C11.2764 5.98832 10.0031 6.68373 8.90142 7.60617C7.79971 8.52862 6.89135 9.65988 6.22864 10.9348C5.56594 12.2098 5.16197 13.6032 5.04001 15.0349C4.91805 16.4666 5.08049 17.9083 5.518 19.277C6.614 22.677 9.235 25.287 12.648 26.379C12.892 26.5 13.136 26.379 13.196 26.136C13.257 26.076 13.257 26.014 13.257 25.893V25.043L13.247 24.963C13.205 24.794 13.048 24.601 12.892 24.497C8.138 22.797 5.7 17.517 7.468 12.844C8.382 10.294 10.393 8.353 12.892 7.442C13.136 7.321 13.257 7.139 13.257 6.835V5.985L13.252 5.897C13.2425 5.80097 13.2024 5.71055 13.1375 5.63907C13.0727 5.56758 12.9866 5.51883 12.892 5.5Z"
    fill="white"
  />
</svg>
