<svg
  width="32"
  height="32"
  viewBox="0 0 32 32"
  fill="none"
  xmlns="http://www.w3.org/2000/svg"
>
<g clip-path="url(#clip0_584_3972)">
<rect width="32" height="32" rx="16" fill="#7A18D5" />
<path
      fill-rule="evenodd"
      clip-rule="evenodd"
      d="M18.1974 5L16.6055 6.42166V9.06244V10.9727V15.0464V17.3943V24.2771L16.1894 24.5781L15.8354 24.2771V16.7299L16.6055 17.3943V15.0464L15.7816 14.4572V10.9727H16.6055V9.06244H15.7937V6.42166L14.2093 5V9.06244H8L8.26565 10.9623L14.2093 15.5309V22.8952L10.9301 20.1503L10.8188 18.9931L9.03749 17.5809L9.4233 21.2422L16.1894 27L22.82 21.2422L22.9336 19.6454L18.1974 16.1908V18.5497L20.8248 20.5825L18.1974 22.8952V18.5497V16.1908V10.9727V9.06244V5ZM14.2093 13.2721V10.9727H11.0572L14.2093 13.2721Z"
      fill="white"
    />
<path
      d="M24 9.06244H18.1974V10.9727L22.0631 10.9623L21.7536 14.333L23.3592 15.7737L24 9.06244Z"
      fill="white"
    />
</g>
<defs>
<clipPath id="clip0_584_3972">
<rect width="32" height="32" rx="16" fill="white" />
</clipPath>
</defs>
</svg>
